<svg width="512" height="525" viewBox="0 0 512 525" fill="none" xmlns="http://www.w3.org/2000/svg">
<g clip-path="url(#clip0_1186_132)">
<path d="M494.345 476.449H17.6553V61.5526C17.6553 56.6776 21.6083 52.7246 26.4833 52.7246H485.517C490.392 52.7246 494.345 56.6776 494.345 61.5526V476.449Z" fill="#21A75A"/>
<path d="M494.345 193.204C492.536 193.654 490.675 193.964 488.727 193.964C475.874 193.964 465.454 183.544 465.454 170.691C465.454 183.543 455.034 193.964 442.181 193.964C429.328 193.964 418.908 183.544 418.908 170.691C418.908 183.543 408.489 193.964 395.635 193.964C382.782 193.964 372.362 183.544 372.362 170.691C372.362 183.543 361.942 193.964 349.089 193.964C336.236 193.964 325.816 183.544 325.816 170.691C325.816 183.543 315.396 193.964 302.543 193.964C289.69 193.964 279.27 183.544 279.27 170.691C279.27 183.543 268.851 193.964 255.997 193.964C243.143 193.964 232.724 183.544 232.724 170.691C232.724 183.543 222.304 193.964 209.451 193.964C196.598 193.964 186.178 183.544 186.178 170.691C186.178 183.543 175.759 193.964 162.905 193.964C150.052 193.964 139.632 183.544 139.632 170.691C139.632 183.543 129.212 193.964 116.359 193.964C103.506 193.964 93.0864 183.544 93.0864 170.691C93.0864 183.543 82.6664 193.964 69.8134 193.964C56.9604 193.964 46.5404 183.544 46.5404 170.691C46.5404 183.543 36.1214 193.964 23.2674 193.964C21.3194 193.964 19.4584 193.654 17.6494 193.204V211.052C19.5034 211.309 21.3434 211.62 23.2674 211.62C31.9064 211.62 39.9284 208.93 46.5404 204.343C53.1544 208.929 61.1754 211.619 69.8154 211.619C78.4544 211.619 86.4764 208.929 93.0884 204.342C99.7004 208.929 107.722 211.619 116.361 211.619C125 211.619 133.022 208.929 139.634 204.342C146.246 208.929 154.268 211.619 162.907 211.619C171.546 211.619 179.568 208.929 186.18 204.342C192.792 208.929 200.814 211.619 209.453 211.619C218.092 211.619 226.114 208.929 232.726 204.342C239.337 208.929 247.359 211.619 255.998 211.619C264.637 211.619 272.659 208.929 279.271 204.342C285.883 208.929 293.905 211.619 302.544 211.619C311.183 211.619 319.205 208.929 325.817 204.342C332.429 208.929 340.451 211.619 349.09 211.619C357.729 211.619 365.751 208.929 372.363 204.342C378.975 208.929 386.997 211.619 395.636 211.619C404.275 211.619 412.297 208.929 418.909 204.342C425.521 208.929 433.543 211.619 442.182 211.619C450.822 211.619 458.843 208.929 465.455 204.342C472.067 208.929 480.089 211.619 488.728 211.619C490.651 211.619 492.492 211.309 494.346 211.051V193.204H494.345Z" fill="#38CA91"/>
<path d="M265 229H62V388H265V229Z" fill="#B4E1FA"/>
<path d="M264.828 379.346H247.172L141.241 238.104H158.897L264.828 379.346Z" fill="#DAF0FD"/>
<path d="M209.454 193.966C196.601 193.966 186.181 183.546 186.181 170.693V149.828H232.727V170.693C232.727 183.546 222.307 193.966 209.454 193.966Z" fill="#219653"/>
<path d="M302.546 193.966C289.693 193.966 279.273 183.546 279.273 170.693V149.828H325.819V170.693C325.818 183.546 315.399 193.966 302.546 193.966Z" fill="#219653"/>
<path d="M116.364 193.966C103.511 193.966 93.0908 183.546 93.0908 170.693V149.828H139.637V170.693C139.636 183.546 129.217 193.966 116.364 193.966Z" fill="#219653"/>
<path d="M23.273 193.966C10.42 193.966 0 183.546 0 170.693V149.828H46.546V170.693C46.546 183.546 36.126 193.966 23.273 193.966Z" fill="#219653"/>
<path d="M395.636 193.966C382.783 193.966 372.363 183.546 372.363 170.693V149.828H418.909V170.693C418.909 183.546 408.49 193.966 395.636 193.966Z" fill="#219653"/>
<path d="M162.909 193.966C150.056 193.966 139.636 183.546 139.636 170.693V149.828H186.182V170.693C186.182 183.546 175.763 193.966 162.909 193.966Z" fill="#C7CFE2"/>
<path d="M349.09 193.966C336.237 193.966 325.817 183.546 325.817 170.693V149.828H372.363V170.693C372.362 183.546 361.943 193.966 349.09 193.966Z" fill="#C7CFE2"/>
<path d="M488.727 193.966C475.874 193.966 465.454 183.546 465.454 170.693V149.828H512V170.693C512 183.546 501.58 193.966 488.727 193.966Z" fill="#219653"/>
<path d="M442.182 193.966C429.329 193.966 418.909 183.546 418.909 170.693V149.828H465.455V170.693C465.454 183.546 455.034 193.966 442.182 193.966Z" fill="#C7CFE2"/>
<path d="M69.8179 193.966C56.9649 193.966 46.5449 183.546 46.5449 170.693V149.828H93.0909V170.693C93.0909 183.546 82.6709 193.966 69.8179 193.966Z" fill="#C7CFE2"/>
<path d="M256 193.966C243.147 193.966 232.727 183.546 232.727 170.693V149.828H279.273V170.693C279.273 183.546 268.853 193.966 256 193.966Z" fill="#C7CFE2"/>
<path d="M232.727 149.828H186.182L190.997 79.207H234.333L232.727 149.828Z" fill="#00B46E"/>
<path d="M325.818 149.828H279.273L277.667 79.207H321.003L325.818 149.828Z" fill="#00B46E"/>
<path d="M139.636 149.828H93.0908L104.326 79.207H147.661L139.636 149.828Z" fill="#00B46E"/>
<path d="M46.546 149.828H0L17.655 79.207H60.991L46.546 149.828Z" fill="#00B46E"/>
<path d="M418.909 149.828H372.363L364.339 79.207H407.673L418.909 149.828Z" fill="#00B46E"/>
<path d="M186.182 149.828H139.636L147.661 79.207H190.997L186.182 149.828Z" fill="#EFF2FA"/>
<path d="M372.363 149.828H325.818L321.003 79.207H364.339L372.363 149.828Z" fill="#EFF2FA"/>
<path d="M512 149.828H465.454L451.009 79.207H494.345L512 149.828Z" fill="#00B46E"/>
<path d="M465.454 149.828H418.909L407.673 79.207H451.009L465.454 149.828Z" fill="#EFF2FA"/>
<path d="M93.0909 149.828H46.5459L60.9909 79.207H104.326L93.0909 149.828Z" fill="#EFF2FA"/>
<path d="M279.273 149.828H232.727L234.333 79.207H277.667L279.273 149.828Z" fill="#EFF2FA"/>
<path d="M503.172 485.275H8.828C3.953 485.275 0 481.322 0 476.447C0 471.572 3.953 467.619 8.828 467.619H503.173C508.048 467.619 512.001 471.572 512.001 476.447C512 481.322 508.047 485.275 503.172 485.275Z" fill="#219653"/>
<g opacity="0.97">
<path opacity="0.97" d="M494.345 449.967H17.6553V467.622H494.345V449.967Z" fill="#00B46E"/>
</g>
<path d="M494.345 414.654H17.6553V449.964H494.345V414.654Z" fill="#21A75A"/>
<path d="M263.934 237.7V379.298H68.0674V237.7H263.934ZM271.467 220H60.5337C56.3734 220 53 223.963 53 228.85V388.15C53 393.037 56.3734 397 60.5337 397H271.466C275.627 397 279 393.037 279 388.15V228.85C279 223.963 275.627 220 271.467 220Z" fill="white"/>
<path d="M450.207 220.447H361.931C357.056 220.447 353.103 224.4 353.103 229.275V449.965H459.034V229.275C459.034 224.4 455.082 220.447 450.207 220.447Z" fill="white"/>
<path d="M441.38 238.104H370.759V379.345H441.38V238.104Z" fill="#B4E1FA"/>
<path d="M264 238H69V256H264V238Z" fill="#A0D2F0"/>
<path d="M441.38 238.104H370.759V255.759H441.38V238.104Z" fill="#A0D2F0"/>
<path d="M229.517 379.346H194.207L88.2764 238.104H123.586L229.517 379.346Z" fill="#A0D2F0"/>
<path d="M172.138 255.76L158.897 238.104H141.241L154.483 255.76H172.138Z" fill="#B4E1FA"/>
<path d="M441.379 308.725L388.414 238.104H370.759L441.379 332.266V308.725Z" fill="#DAF0FD"/>
<path d="M401.655 255.76L388.414 238.104H370.759L384 255.76H401.655Z" fill="#B4E1FA"/>
<path d="M441.38 238.104H370.759V255.759H441.38V238.104Z" fill="#A0D2F0"/>
<path d="M441.379 308.725L388.414 238.104H370.759L441.379 332.266V308.725Z" fill="#DAF0FD"/>
<path d="M370.759 261.645V308.725L423.724 379.346H441.379V355.805L370.759 261.645Z" fill="#A0D2F0"/>
<path d="M192.216 340.561L174.327 322.672L149.558 347.441L167.447 365.33L167.458 365.318C174.327 371.704 185.071 371.557 191.757 364.871C198.443 358.185 198.589 347.441 192.204 340.572L192.216 340.561Z" fill="#F3DBBD"/>
<path d="M156.438 304.783L156.427 304.794C149.558 298.409 138.814 298.555 132.128 305.241C125.442 311.927 125.295 322.671 131.681 329.54L131.669 329.552L149.558 347.441L174.328 322.671L156.438 304.783Z" fill="#E74424"/>
<path d="M177.3 260.669L177.288 260.681C170.419 254.295 159.675 254.442 152.989 261.128C146.303 267.814 146.157 278.558 152.542 285.427L152.531 285.438L170.419 303.327L195.189 278.558L177.3 260.669Z" fill="#F3DBBD"/>
<path d="M213.067 296.459L213.078 296.448L195.189 278.559L170.42 303.328L188.309 321.217L188.32 321.205C195.189 327.591 205.933 327.444 212.619 320.758C219.305 314.072 219.452 303.328 213.067 296.459Z" fill="#E74424"/>
</g>
<circle cx="256" cy="60" r="60" fill="#EFF2FA"/>
<path d="M284 49.2308H266.769V32H245.231V49.2308H228V70.7692H245.231V88H266.769V70.7692H284V49.2308Z" fill="#FF0000"/>
<defs>
<clipPath id="clip0_1186_132">
<rect width="512" height="512" fill="white" transform="translate(0 13)"/>
</clipPath>
</defs>
</svg>
